
<svg xmlns="http://www.w3.org/2000/svg" version="1.1" xmlns:xlink="http://www.w3.org/1999/xlink" preserveAspectRatio="none" x="0px" y="0px" width="180px" height="187px" viewBox="0 0 180 187">
<defs>
<linearGradient id="Gradient_1" gradientUnits="userSpaceOnUse" x1="23.987499999999997" y1="179.91250000000002" x2="149.5125" y2="9.387500000000003" spreadMethod="pad">
<stop  offset="0%" stop-color="#56D0FF"/>

<stop  offset="100%" stop-color="#0E81FF"/>
</linearGradient>

<linearGradient id="Gradient_2" gradientUnits="userSpaceOnUse" x1="23.89999999999999" y1="180.4" x2="149.2" y2="9.799999999999983" spreadMethod="pad">
<stop  offset="0%" stop-color="#56D0FF"/>

<stop  offset="100%" stop-color="#0E81FF"/>
</linearGradient>
</defs>

<g id="Layer_4">
<g>
<g>
<g>
<path fill="url(#Gradient_1)" stroke="none" d="
M 116.3 34.6
Q 103.75 29.05 89.95 29.05 76.15 29.05 63.55 34.6 51.4 39.9 42 49.65 22.15 70.3 22.15 99.45 22.25 118.8 31.75 135.35
L 73 123.7 72.4 156.9
Q 94.7 162.65 105.65 164.3 116.85 166 134.05 166.05 136.8 164.75 140.55 159.75 144.8 154.1 148.35 146.1 157.6 125.15 157.7 99.45 157.7 70.3 137.85 49.65 128.45 39.9 116.3 34.6
M 100.4 85.6
L 100.4 85.6
Q 102.8150390625 86.283984375 108.2 88.15
L 108.05 88.15
Q 112.6849609375 89.5640625 116.7 89.55 117.8712890625 89.573828125 118.7 90.4 119.526171875 91.2287109375 119.5 92.4 119.526171875 93.5712890625 118.7 94.4 117.8712890625 95.226171875 116.7 95.2 111.9150390625 95.2359375 106.4 93.55
L 106.35 93.5 106.3 93.5
Q 101.184765625 91.7158203125 98.9 91.05
L 98.85 91.05
Q 92.5986328125 89.3302734375 88.05 94.4 87.279296875 95.3005859375 86.1 95.35 84.9560546875 95.436328125 84.05 94.65 83.196484375 93.8798828125 83.1 92.7 83.0640625 91.558984375 83.85 90.65 90.801171875 82.869921875 100.4 85.6
M 93.05 96
Q 93.0892578125 94.8369140625 93.9 94 94.775390625 93.2080078125 95.95 93.2 97.112109375 93.23828125 97.9 94.05 98.7408203125 94.9263671875 98.7 96.1
L 98.55 110.05
Q 98.5607421875 111.2130859375 97.7 112 96.874609375 112.8419921875 95.7 112.8 94.537890625 112.81171875 93.7 111.95 92.908984375 111.1236328125 92.9 109.95
L 93.05 96
M 133.6 84.75
Q 133.18125 85.835546875 132.1 86.3 131.02734375 86.762109375 129.95 86.3 128.8650390625 85.88203125 128.4 84.8 127.9388671875 83.7267578125 128.35 82.65 132.09921875 73.381640625 137.35 72.95 143.755859375 71.296484375 147.9 82.9 148.2984375 83.995703125 147.8 85.05 147.2974609375 86.106640625 146.2 86.5 145.1052734375 86.898828125 144.05 86.4 142.99375 85.896484375 142.6 84.8 140.4125 78.7150390625 138.25 78.55
L 138.25 78.5 138.2 78.55
Q 135.8 79.3197265625 133.6 84.75
M 133.6 92.35
Q 134.475390625 91.5580078125 135.65 91.55 136.812109375 91.58828125 137.6 92.4 138.4408203125 93.2763671875 138.4 94.45
L 138.25 108.4
Q 138.2607421875 109.5630859375 137.4 110.35 136.574609375 111.1919921875 135.4 111.15 134.237890625 111.16171875 133.4 110.3 132.608984375 109.4736328125 132.6 108.3
L 132.75 94.35
Q 132.7892578125 93.1869140625 133.6 92.35
M 81.95 121.4
Q 81.602734375 120.3005859375 82.1 119.25 82.6322265625 118.2017578125 83.7 117.8 84.8384765625 117.4515625 85.9 117.95 86.946875 118.4931640625 87.3 119.6 91.4056640625 131.5705078125 91.15 141.4 91.0640625 146.7828125 90 149.5 89.5751953125 150.5919921875 88.5 151.05 87.4373046875 151.5619140625 86.35 151.15 85.2595703125 150.7265625 84.75 149.65 84.289453125 148.5857421875 84.7 147.5 85.4359375 145.4173828125 85.5 141.3 85.694140625 132.3294921875 81.95 121.4
M 96.9 135.95
Q 96.96640625 134.793359375 97.8 134 98.6826171875 133.192578125 99.85 133.2 101.0060546875 133.2689453125 101.8 134.1 111.959375 144.935546875 125.25 148.25 131.6884765625 149.86171875 136.15 149.4 137.334375 149.2697265625 138.25 150 139.1673828125 150.72421875 139.3 151.85 139.43125 153.033984375 138.7 153.95 137.9751953125 154.86640625 136.8 155 131.5109375 155.6380859375 123.9 153.75 109.040625 150.064453125 97.7 137.95 96.893359375 137.11484375 96.9 135.95 Z"/>
</g>
</g>

<g>
<path fill="url(#Gradient_2)" stroke="none" d="
M 118.05 173.25
Q 116.33046875 173.1345703125 115 174.25 113.6611328125 175.4248046875 113.5 177.15 113.3833984375 178.917578125 114.5 180.25 115.6767578125 181.5876953125 117.4 181.7 125.984765625 182.3982421875 133.75 182.25 134 182.2501953125 134.25 182.2 141.6814453125 181.3091796875 148.05 175.6
L 148.1 175.6
Q 153.192578125 171.0453125 156.85 164 157.803515625 162.577734375 157.45 160.9 157.1220703125 159.191796875 155.65 158.2 154.1759765625 157.237109375 152.45 157.55 150.7427734375 157.932421875 149.75 159.4 149.675 159.55 149.55 159.7 149.44140625 159.8890625 149.3 160.05 146.4169921875 165.6365234375 142.4 169.25
L 142.4 169.3
Q 138.1587890625 173.0435546875 133.25 173.75 126.025390625 173.887109375 118.05 173.25
M 56.6 168.3
Q 57.523046875 169.810546875 59.2 170.25 82.9697265625 176.455078125 95.8 178.8
L 95.85 178.8
Q 98.0876953125 179.237890625 100.25 179.6 102.004296875 179.88125 103.4 178.85 104.8611328125 177.8115234375 105.15 176.05 105.4322265625 174.348828125 104.4 172.9 103.3583984375 171.4896484375 101.6 171.2 99.523828125 170.8638671875 97.35 170.45 84.73046875 168.1451171875 61.35 162.05 59.6744140625 161.5943359375 58.15 162.45 56.6380859375 163.373046875 56.2 165.05 55.74296875 166.77578125 56.6 168.3
M 62.1 135.65
Q 60.8083984375 135.17890625 59.5 135.55 41.9501953125 140.465625 33.2 143.05 33.1640625 143.1025390625 33.1 143.1 30.3134765625 144.057421875 28.9 144.5
L 28.85 144.5
Q 28.3333984375 144.6662109375 27.85 144.7 26.116015625 144.9373046875 25 146.3 23.925390625 147.7078125 24.1 149.45 24.3361328125 151.1861328125 25.7 152.25 27.1056640625 153.3734375 28.85 153.15 30.06640625 153.03359375 31.4 152.6
L 31.4 152.6
Q 32.886328125 152.1423828125 35.8 151.15
L 35.65 151.2
Q 42.9263671875 149.059375 56.3 145.3
L 56.25 149.15
Q 56.2228515625 150.9177734375 57.45 152.2 58.671875 153.4681640625 60.4 153.5 62.1783203125 153.528515625 63.45 152.3 64.716796875 151.0888671875 64.75 149.35
L 64.9 139.75
Q 64.92578125 138.3833984375 64.15 137.25 63.383203125 136.1220703125 62.1 135.65
M 14.7 94.85
Q 14.7708984375 93.1005859375 13.55 91.8 12.3939453125 90.4892578125 10.65 90.4 8.900390625 90.327734375 7.6 91.5 6.290625 92.7056640625 6.2 94.45 5.78125 103.6189453125 7.25 113.05 9.237109375 126.093359375 14.55 137.75 15.323046875 139.366015625 16.95 139.95 18.62109375 140.5880859375 20.2 139.85 21.81796875 139.11640625 22.4 137.45 23.0486328125 135.8310546875 22.3 134.2 17.4626953125 123.6068359375 15.65 111.75 14.31875 103.1806640625 14.7 94.85
M 33.55 37
Q 31.8263671875 37.0337890625 30.6 38.3 27.0287109375 41.9638671875 23.8 46.1
L 23.85 46.1
Q 12.827734375 60.2751953125 8.75 76.75 8.35859375 78.4828125 9.25 80 10.1802734375 81.5048828125 11.85 81.9 13.5845703125 82.3431640625 15.1 81.4 16.603125 80.5216796875 17 78.8 20.6720703125 64.0248046875 30.55 51.3
L 30.55 51.3
Q 33.47109375 47.5359375 36.7 44.2 37.9255859375 42.9279296875 37.9 41.15 37.86953125 39.4248046875 36.6 38.2 35.3314453125 36.97265625 33.55 37
M 89.45 14.1
Q 88.1919921875 12.89375 86.45 12.95 77.8166015625 13.2638671875 69 15.7
L 69.05 15.7
Q 60.2890625 18.0669921875 52.4 22.15 48.230078125 24.37890625 44.35 26.95 42.878515625 27.932421875 42.5 29.65 42.187109375 31.375390625 43.15 32.85 44.14140625 34.3216796875 45.85 34.65 47.5751953125 35.0216796875 49.05 34.05 52.5697265625 31.7208984375 56.35 29.7 63.4107421875 26.0330078125 71.25 23.9
L 71.25 23.9
Q 79.083203125 21.7359375 86.75 21.45 88.5015625 21.3744140625 89.7 20.05 90.9076171875 18.792578125 90.85 17.05 90.77578125 15.298828125 89.45 14.1
M 138.4 39.6
Q 139.751171875 40.7662109375 141.5 40.6 143.2400390625 40.4876953125 144.35 39.15 145.517578125 37.8025390625 145.35 36.05 145.233984375 34.311328125 143.9 33.15 136.8111328125 27.126171875 128.25 22.55 116.3884765625 16.228125 104.05 14 102.3212890625 13.71640625 100.85 14.7 99.432421875 15.7287109375 99.1 17.45 98.815234375 19.1775390625 99.8 20.6 100.8298828125 22.0662109375 102.55 22.35 113.61171875 24.371875 124.25 30.05 131.9890625 34.173828125 138.4 39.6
M 165.2 104.45
Q 165.01328125 109.8404296875 164.25 115.35
L 164.2 115.4
Q 162.106640625 131.6974609375 156.95 144.95 156.3005859375 146.5828125 157 148.2 157.712890625 149.81015625 159.35 150.45 160.9845703125 151.101171875 162.6 150.4 164.2083984375 149.6888671875 164.85 148.05 170.393359375 133.9025390625 172.65 116.5
L 172.65 116.5
Q 173.48671875 110.5595703125 173.7 104.75 173.7560546875 102.996875 172.55 101.7 171.3509765625 100.41171875 169.6 100.35 167.8447265625 100.2923828125 166.55 101.5 165.2630859375 102.696875 165.2 104.45
M 171.95 90.3
Q 173.03984375 88.9046875 172.8 87.15 172.48984375 84.925 172.05 82.65 168.8177734375 64.9388671875 159.6 51.05
L 159.6 51.1
Q 157.9916015625 48.5708984375 156.2 46.2 155.120703125 44.7951171875 153.35 44.55 151.646875 44.308984375 150.25 45.35 148.843359375 46.4388671875 148.6 48.15 148.349609375 49.9013671875 149.4 51.3 151.0083984375 53.4291015625 152.45 55.7
L 152.5 55.75
Q 160.7822265625 68.2611328125 163.7 84.2 164.11015625 86.2748046875 164.4 88.3 164.64453125 90.0595703125 166.05 91.1 167.446875 92.191015625 169.15 91.95 170.911328125 91.7064453125 171.95 90.3 Z"/>
</g>

<use xlink:href="#Layer0_0_STROKES_1_FILL"/>
</g>
</g>
</svg>
