
<svg xmlns="http://www.w3.org/2000/svg" version="1.1" xmlns:xlink="http://www.w3.org/1999/xlink" preserveAspectRatio="none" x="0px" y="0px" width="256px" height="256px" viewBox="0 0 256 256">
<defs>
<linearGradient id="Gradient_1" gradientUnits="userSpaceOnUse" x1="17.83749999999999" y1="166.9625" x2="143.3625" y2="-3.5625" spreadMethod="pad">
<stop  offset="0%" stop-color="#56D0FF"/>

<stop  offset="100%" stop-color="#0E81FF"/>
</linearGradient>

<linearGradient id="Gradient_2" gradientUnits="userSpaceOnUse" x1="17.75" y1="167.45000000000002" x2="143.05" y2="-3.1500000000000057" spreadMethod="pad">
<stop  offset="0%" stop-color="#56D0FF"/>

<stop  offset="100%" stop-color="#0E81FF"/>
</linearGradient>
</defs>

<g id="Layer_3">
<g>
<g>
<g>
<path fill="#000000" stroke="none" d="
M 256 128
Q 256 74.95 218.5 37.5 180.95 0 128 0 75 0 37.5 37.5 0 74.95 0 128 0 181.05 37.5 218.55 75 256 128 256 180.95 256 218.5 218.55 256 181.05 256 128 Z"/>
</g>
</g>
</g>
</g>

<g id="svg1">
<g transform="matrix( 1.08135986328125, 0, 0, 1.08135986328125, 37.45,36.55) ">
<g>
<g>
<path fill="url(#Gradient_1)" stroke="none" d="
M 110.15 21.65
Q 97.6 16.1 83.8 16.1 70 16.1 57.4 21.65 45.25 26.95 35.85 36.7 16 57.35 16 86.5 16.1 105.85 25.6 122.4
L 66.85 110.75 66.25 143.95
Q 88.55 149.7 99.5 151.35 110.7 153.05 127.9 153.1 130.65 151.8 134.4 146.8 138.65 141.15 142.2 133.15 151.45 112.2 151.55 86.5 151.55 57.35 131.7 36.7 122.3 26.95 110.15 21.65 Z"/>
</g>
</g>
</g>

<g transform="matrix( 1.08135986328125, 0, 0, 1.08135986328125, 37.45,36.55) ">
<g transform="matrix( 0.9247589111328125, 0, 0, 0.9247589111328125, -34.6,-33.8) ">
<path stroke="#000000" stroke-width="5.65" stroke-linejoin="miter" stroke-linecap="round" stroke-miterlimit="11" fill="none" d="
M 122.33674926757813 152.85025329589843
Q 126.554052734375 165.23182373046876 126.33778076171876 175.3966064453125 126.22964477539062 180.53306579589844 125.25642089843751 183.12832946777343"/>
</g>
</g>

<g transform="matrix( 1.08135986328125, 0, 0, 1.08135986328125, 37.45,36.55) ">
<g transform="matrix( 0.9247589111328125, 0, 0, 0.9247589111328125, -34.6,-33.8) ">
<path stroke="#000000" stroke-width="5.65" stroke-linejoin="miter" stroke-linecap="round" stroke-miterlimit="11" fill="none" d="
M 138.665283203125 169.66539916992184
Q 150.28990173339844 182.04696960449218 165.53707580566407 185.83172912597655 173.10659484863282 187.72410888671874 178.40525817871094 187.12936096191407"/>
</g>
</g>

<g transform="matrix( 1.08135986328125, 0, 0, 1.08135986328125, 37.45,36.55) ">
<g transform="matrix( 0.9247589111328125, 0, 0, 0.9247589111328125, -34.6,-33.8) ">
<path stroke="#000000" stroke-width="5.65" stroke-linejoin="miter" stroke-linecap="round" stroke-miterlimit="11" fill="none" d="
M 123.74251708984374 122.6262451171875
Q 129.96033630371093 115.65147399902344 138.55714721679686 118.08453369140625 141.0983428955078 118.78741760253905 146.77548217773438 120.78793334960938 152.2363494873047 122.46404113769532 156.99433288574218 122.46404113769532"/>
</g>
</g>

<g transform="matrix( 1.08135986328125, 0, 0, 1.08135986328125, 37.45,36.55) ">
<g transform="matrix( 0.9247589111328125, 0, 0, 0.9247589111328125, -34.6,-33.8) ">
<path stroke="#000000" stroke-width="5.65" stroke-linejoin="miter" stroke-linecap="round" stroke-miterlimit="11" fill="none" d="
M 187.86715698242188 113.21841430664062
Q 184.46087341308595 103.70244750976562 179.8110260009766 104.45939941406249 175.64779052734377 105.10821533203125 172.45777893066406 113.05621032714843"/>
</g>
</g>

<g transform="matrix( 1.08135986328125, 0, 0, 1.08135986328125, 37.45,36.55) ">
<g transform="matrix( 0.9247589111328125, 0, 0, 0.9247589111328125, -34.6,-33.8) ">
<path stroke="#000000" stroke-width="5.65" stroke-linejoin="miter" stroke-linecap="round" stroke-miterlimit="11" fill="none" d="
M 134.50204772949218 126.41100463867187
L 134.33984375 141.4959747314453"/>
</g>
</g>

<g transform="matrix( 1.08135986328125, 0, 0, 1.08135986328125, 37.45,36.55) ">
<g transform="matrix( 0.9247589111328125, 0, 0, 0.9247589111328125, -34.6,-33.8) ">
<path stroke="#000000" stroke-width="5.65" stroke-linejoin="miter" stroke-linecap="round" stroke-miterlimit="11" fill="none" d="
M 177.43203430175782 124.62676086425782
L 177.26983032226565 139.71173095703125"/>
</g>
</g>

<g transform="matrix( 1.08135986328125, 0, 0, 1.08135986328125, 37.45,36.55) ">
<g>
<path fill="url(#Gradient_2)" stroke="none" d="
M 146.3 144.6
Q 144.5927734375 144.982421875 143.6 146.45 143.525 146.6 143.4 146.75 143.29140625 146.9390625 143.15 147.1 140.2669921875 152.6865234375 136.25 156.3
L 136.25 156.35
Q 132.0087890625 160.0935546875 127.1 160.8 119.875390625 160.937109375 111.9 160.3 110.18046875 160.1845703125 108.85 161.3 107.5111328125 162.4748046875 107.35 164.2 107.2333984375 165.967578125 108.35 167.3 109.5267578125 168.6376953125 111.25 168.75 119.834765625 169.4482421875 127.6 169.3 127.85 169.3001953125 128.1 169.25 135.5314453125 168.3591796875 141.9 162.65
L 141.95 162.65
Q 147.042578125 158.0953125 150.7 151.05 151.653515625 149.627734375 151.3 147.95 150.9720703125 146.241796875 149.5 145.25 148.0259765625 144.287109375 146.3 144.6
M 50.45 155.35
Q 51.373046875 156.860546875 53.05 157.3 76.8197265625 163.505078125 89.65 165.85
L 89.7 165.85
Q 91.9376953125 166.287890625 94.1 166.65 95.854296875 166.93125 97.25 165.9 98.7111328125 164.8615234375 99 163.1 99.2822265625 161.398828125 98.25 159.95 97.2083984375 158.5396484375 95.45 158.25 93.373828125 157.9138671875 91.2 157.5 78.58046875 155.1951171875 55.2 149.1 53.5244140625 148.6443359375 52 149.5 50.4880859375 150.423046875 50.05 152.1 49.59296875 153.82578125 50.45 155.35
M 55.95 122.7
Q 54.6583984375 122.22890625 53.35 122.6 35.8001953125 127.515625 27.05 130.1 27.0140625 130.1525390625 26.95 130.15 24.1634765625 131.107421875 22.75 131.55
L 22.7 131.55
Q 22.1833984375 131.7162109375 21.7 131.75 19.966015625 131.9873046875 18.85 133.35 17.775390625 134.7578125 17.95 136.5 18.1861328125 138.2361328125 19.55 139.3 20.9556640625 140.4234375 22.7 140.2 23.91640625 140.08359375 25.25 139.65
L 25.25 139.65
Q 26.736328125 139.1923828125 29.65 138.2
L 29.5 138.25
Q 36.7763671875 136.109375 50.15 132.35
L 50.1 136.2
Q 50.0728515625 137.9677734375 51.3 139.25 52.521875 140.5181640625 54.25 140.55 56.0283203125 140.578515625 57.3 139.35 58.566796875 138.1388671875 58.6 136.4
L 58.75 126.8
Q 58.77578125 125.4333984375 58 124.3 57.233203125 123.1720703125 55.95 122.7
M 1.45 78.55
Q 0.140625 79.7556640625 0.05 81.5 -0.36875 90.6689453125 1.1 100.1 3.087109375 113.143359375 8.4 124.8 9.173046875 126.416015625 10.8 127 12.47109375 127.6380859375 14.05 126.9 15.66796875 126.16640625 16.25 124.5 16.8986328125 122.8810546875 16.15 121.25 11.3126953125 110.6568359375 9.5 98.8 8.16875 90.2306640625 8.55 81.9 8.6208984375 80.1505859375 7.4 78.85 6.2439453125 77.5392578125 4.5 77.45 2.750390625 77.377734375 1.45 78.55
M 17.65 33.15
L 17.7 33.15
Q 6.677734375 47.3251953125 2.6 63.8 2.20859375 65.5328125 3.1 67.05 4.0302734375 68.5548828125 5.7 68.95 7.4345703125 69.3931640625 8.95 68.45 10.453125 67.5716796875 10.85 65.85 14.5220703125 51.0748046875 24.4 38.35
L 24.4 38.35
Q 27.32109375 34.5859375 30.55 31.25 31.7755859375 29.9779296875 31.75 28.2 31.71953125 26.4748046875 30.45 25.25 29.1814453125 24.02265625 27.4 24.05 25.6763671875 24.0837890625 24.45 25.35 20.8787109375 29.0138671875 17.65 33.15
M 84.7 4.1
Q 84.62578125 2.348828125 83.3 1.15 82.0419921875 -0.05625 80.3 0 71.6666015625 0.3138671875 62.85 2.75
L 62.9 2.75
Q 54.1390625 5.1169921875 46.25 9.2 42.080078125 11.42890625 38.2 14 36.728515625 14.982421875 36.35 16.7 36.037109375 18.425390625 37 19.9 37.99140625 21.3716796875 39.7 21.7 41.4251953125 22.0716796875 42.9 21.1 46.4197265625 18.7708984375 50.2 16.75 57.2607421875 13.0830078125 65.1 10.95
L 65.1 10.95
Q 72.933203125 8.7859375 80.6 8.5 82.3515625 8.4244140625 83.55 7.1 84.7576171875 5.842578125 84.7 4.1
M 137.75 20.2
Q 130.6611328125 14.176171875 122.1 9.6 110.2384765625 3.278125 97.9 1.05 96.1712890625 0.76640625 94.7 1.75 93.282421875 2.7787109375 92.95 4.5 92.665234375 6.2275390625 93.65 7.65 94.6798828125 9.1162109375 96.4 9.4 107.46171875 11.421875 118.1 17.1 125.8390625 21.223828125 132.25 26.65 133.601171875 27.8162109375 135.35 27.65 137.0900390625 27.5376953125 138.2 26.2 139.367578125 24.8525390625 139.2 23.1 139.083984375 21.361328125 137.75 20.2
M 165.8 77.35
Q 166.88984375 75.9546875 166.65 74.2 166.33984375 71.975 165.9 69.7 162.6677734375 51.9888671875 153.45 38.1 151.8251953125 35.5990234375 150.05 33.25 148.970703125 31.8451171875 147.2 31.6 145.496875 31.358984375 144.1 32.4 142.693359375 33.4888671875 142.45 35.2 142.199609375 36.9513671875 143.25 38.35 144.8583984375 40.4791015625 146.3 42.75
L 146.35 42.8
Q 154.6322265625 55.3111328125 157.55 71.25 157.96015625 73.3248046875 158.25 75.35 158.49453125 77.1095703125 159.9 78.15 161.296875 79.241015625 163 79 164.761328125 78.7564453125 165.8 77.35
M 166.4 88.75
Q 165.2009765625 87.46171875 163.45 87.4 161.6947265625 87.3423828125 160.4 88.55 159.1130859375 89.746875 159.05 91.5 158.86328125 96.8904296875 158.1 102.4
L 158.05 102.45
Q 155.956640625 118.7474609375 150.8 132 150.1505859375 133.6328125 150.85 135.25 151.562890625 136.86015625 153.2 137.5 154.8345703125 138.151171875 156.45 137.45 158.0583984375 136.7388671875 158.7 135.1 164.243359375 120.9525390625 166.5 103.55
L 166.5 103.55
Q 167.33671875 97.6095703125 167.55 91.8 167.6060546875 90.046875 166.4 88.75 Z"/>
</g>

<use xlink:href="#Layer0_07_STROKES_1_FILL"/>
</g>
</g>
</svg>
