
<svg xmlns="http://www.w3.org/2000/svg" version="1.1" xmlns:xlink="http://www.w3.org/1999/xlink" preserveAspectRatio="none" x="0px" y="0px" width="20px" height="20px" viewBox="0 0 20 20">
<defs/>

<g id="Layer_1"/>

<g id="svg1">
<g>
<g>
<g>
<path fill="#000000" stroke="none" d="
M 16.55 17.35
Q 16.3716796875 17.7720703125 16.05 18
L 16 18.05
Q 15.579296875 18.42109375 15.1 18.5 14.4212890625 18.4958984375 13.7 18.45 13.430078125 18.4400390625 13.2 18.6 13.0197265625 18.7927734375 13 19.05 12.98984375 19.3201171875 13.15 19.5 13.342578125 19.7298828125 13.6 19.75 14.4255859375 19.80078125 15.2 19.8 15.24921875 19.8037109375 15.3 19.8 16.105859375 19.68125 16.85 19.05
L 16.85 19.05
Q 17.4357421875 18.6111328125 17.75 17.9 17.853125 17.676953125 17.75 17.4 17.6626953125 17.1677734375 17.4 17.05 17.177734375 16.9466796875 16.9 17.05 16.66796875 17.1380859375 16.55 17.35
M 7.4 14.65
Q 7.387890625 14.5236328125 7.25 14.4 7.0919921875 14.2060546875 6.8 14.2 6.719140625 14.196484375 6.6 14.2 5.665234375 14.477734375 4.9 14.65 4.67578125 14.743359375 4.55 14.95 4.4099609375 15.2119140625 4.45 15.45 4.5431640625 15.7244140625 4.75 15.85 5.01171875 15.98984375 5.25 15.9 5.6763671875 15.8177734375 6.1 15.7
L 6.1 17.75
Q 6.084375 17.955859375 6.15 18.1 6.217578125 18.1966796875 6.25 18.25
L 6.3 18.25
Q 6.4173828125 18.3912109375 6.55 18.4
L 6.6 18.4
Q 6.6693359375 18.448828125 6.7 18.45 9.146875 19.1357421875 10.55 19.4 10.8314453125 19.488671875 11.05 19.35 11.2728515625 19.1947265625 11.3 18.9 11.3888671875 18.66875 11.25 18.45 11.09453125 18.22734375 10.8 18.15 9.5376953125 17.9029296875 7.4 17.3
L 7.45 14.85
Q 7.453515625 14.7693359375 7.4 14.65
M 1.55 11.2
Q 1.325390625 11.0625 1.05 11.1 0.7861328125 11.1361328125 0.6 11.35 0.4626953125 11.574609375 0.5 11.85 0.7724609375 13.7681640625 1.85 15.5 1.8931640625 15.5927734375 1.95 15.65
L 1.9 15.65
Q 2.04609375 15.8900390625 2.3 15.95 2.5568359375 16.053125 2.8 15.9 3.0404296875 15.804296875 3.1 15.55 3.202734375 15.293359375 3.05 15.05 2.993359375 14.8962890625 2.9 14.8 2.02265625 13.2939453125 1.8 11.65 1.763671875 11.3861328125 1.55 11.2
M 2.45 4.3
Q 2.205859375 4.3775390625 2.05 4.6 0.9884765625 6.206640625 0.6 7.95 0.575 8.225 0.5 8.45 0.461328125 8.7314453125 0.6 8.95 0.755859375 9.173046875 1 9.2 1.281640625 9.2888671875 1.5 9.15 1.7228515625 8.99453125 1.75 8.7 1.825 8.475 1.85 8.2 2.211328125 6.6931640625 3.15 5.3 3.288671875 5.0810546875 3.2 4.8 3.173046875 4.555859375 2.95 4.4 2.731640625 4.2611328125 2.45 4.3
M 8.5 1.65
Q 8.6951171875 1.4642578125 8.7 1.2 8.6951171875 0.935546875 8.5 0.75 8.3142578125 0.5546875 8.05 0.55 7.95 0.55 7.85 0.55 7.7609375 0.5505859375 7.65 0.55 6.7107421875 0.842578125 5.8 1.3 4.881640625 1.806640625 4.1 2.45 3.9208984375 2.6294921875 3.9 2.9 3.8767578125 3.1689453125 4.05 3.35 4.2291015625 3.5794921875 4.5 3.6 4.7685546875 3.62265625 4.95 3.45 5.618359375 2.893359375 6.4 2.45 7.14765625 2.0794921875 7.9 1.85 7.9931640625 1.85 8.05 1.85 8.3142578125 1.8451171875 8.5 1.65
M 18.6 10.95
Q 18.548828125 11.5248046875 18.45 12.1
L 18.45 12.1
Q 18.2568359375 13.608203125 17.8 14.9 17.7470703125 15.1568359375 17.85 15.4 17.9958984375 15.6404296875 18.25 15.7 18.5068359375 15.803125 18.75 15.65 18.990234375 15.5541015625 19.05 15.3 19.5431640625 13.891796875 19.75 12.25 19.8521484375 11.662890625 19.9 11.05 19.923046875 10.782421875 19.75 10.55 19.571484375 10.3708984375 19.3 10.35 19.0318359375 10.3265625 18.8 10.5 18.62109375 10.6779296875 18.6 10.95
M 15.6 4.65
L 15.6 4.6
Q 14.5103515625 3.59609375 13.15 3 11.7296875 2.3990234375 10.2 2.4 8.6154296875 2.39921875 7.25 3 5.8333984375 3.6060546875 4.8 4.65
L 4.75 4.65
Q 2.6037109375 6.987109375 2.6 10.3 2.5951171875 12.42578125 3.6 14.2 3.7392578125 14.416796875 3.95 14.5 4.158984375 14.5859375 4.35 14.5
L 7.75 13.55 7.7 16.1
Q 7.6900390625 16.3595703125 7.8 16.55 7.9712890625 16.7255859375 8.2 16.75 10.61796875 17.3962890625 11.75 17.5 12.9728515625 17.6525390625 14.75 17.65 14.9080078125 17.6466796875 15.05 17.55 15.455078125 17.391015625 15.85 16.8 16.4080078125 16.1580078125 16.8 15.3 17.7998046875 13.049609375 17.8 10.3 17.79609375 6.987109375 15.6 4.65
M 10.2 3.7
Q 11.4703125 3.70078125 12.65 4.2 13.773828125 4.696875 14.65 5.55
L 14.7 5.55
Q 16.5037109375 7.5310546875 16.5 10.3 16.5 12.7501953125 15.6 14.75 15.291796875 15.4419921875 14.85 15.95 14.8234375 16.0130859375 14.8 16.05 14.6712890625 16.24140625 14.55 16.35 12.97578125 16.338671875 11.85 16.2
L 11.85 16.2
Q 10.9064453125 16.11484375 9 15.65
L 9.1 12.7
Q 9.0994140625 12.506640625 8.95 12.3 8.8650390625 12.16171875 8.65 12.1 8.47578125 12.0224609375 8.25 12.05
L 4.55 13.1
Q 3.9041015625 11.8146484375 3.9 10.3 3.89609375 7.5126953125 5.7 5.55
L 5.7 5.55
Q 6.56640625 4.6939453125 7.75 4.2 8.8845703125 3.70078125 10.2 3.7
M 17.05 5.35
Q 17.0984375 5.4 17.1 5.4 17.9546875 6.5765625 18.3 8.05 18.392578125 8.3111328125 18.6 8.45 18.848046875 8.5896484375 19.1 8.5 19.3607421875 8.4576171875 19.5 8.2 19.6392578125 8.0013671875 19.55 7.75 19.1453125 6.0236328125 18.15 4.65
L 18.2 4.7
Q 17.9521484375 4.23515625 17.6 3.8 17.4640625 3.58671875 17.2 3.55 16.925 3.5125 16.7 3.65 16.486328125 3.8357421875 16.45 4.1 16.4126953125 4.374609375 16.55 4.6 16.84765625 4.9646484375 17.05 5.35
M 15.4 2.55
Q 15.553125 2.3068359375 15.45 2.05 15.3900390625 1.79609375 15.15 1.65 14.85 1.525 14.55 1.35
L 14.55 1.35
Q 12.945703125 0.45859375 11.1 0.3 10.8326171875 0.2765625 10.6 0.45 10.42109375 0.6279296875 10.4 0.9 10.3763671875 1.167578125 10.55 1.35 10.7275390625 1.578515625 11 1.6 12.554296875 1.74140625 13.9 2.5
L 13.95 2.5
Q 14.25 2.675 14.55 2.8 14.793359375 2.952734375 15.05 2.85 15.304296875 2.7904296875 15.4 2.55 Z"/>
</g>
</g>
</g>
</g>
</svg>
